<svg version="1" xmlns="http://www.w3.org/2000/svg" width="1377.333" height="1377.333" viewBox="0 0 1033.000000 1033.000000"><path d="M500.9 95.4c-.2.2-3.3.7-6.9 1.1-3.6.4-6.8.9-7.1 1.1-.3.2-2.1.6-4 .9-1.9.3-5.1 1-7.1 1.6-51.1 13.5-91.4 49.3-111.1 98.5-5.6 14.2-10.6 36.3-10.7 47.1 0 5-.7 5.5-5 4.3-10.6-3-37.7-3.4-50.8-.6-38.7 8.2-70.9 33.5-87.6 69-3.4 7.3-8 21.2-9.1 27.8-.3 1.5-.8 4.3-1.1 6-.3 1.8-.7 7.1-.9 11.8l-.4 8.5-3.8-.2c-7.3-.4-21.8-.4-23.8 0-1.1.3-4 .8-6.5 1.2-19 3.2-40.2 16-52.9 32-7.4 9.3-14.4 23.2-17.3 34.5-2.8 10.8-3 31.8-.5 42.3 6.7 27.4 26.7 51.5 51.8 62.2l6.6 2.8.2 4.6c.3 5.4.6 9.4 1.5 17.8 2.9 29.8 3.1 26.7-2.5 45.7-8.1 27.3-9.7 33.1-12.5 42.3-1.4 4.9-2.7 9.2-2.8 9.8-.2.5-1.1 3.7-2.1 7s-2 6.4-2.1 7c-.1.5-2.1 7.4-4.4 15.3-2.4 7.8-4 14.5-3.7 14.9.4.3 7.4.7 15.7.7 12.5.1 15.1-.1 15.5-1.4.2-.8 1.5-5.3 2.9-10 7.5-26 22.8-77.7 23.3-79 .5-1.5 1.9 2.3 6.3 17 8.3 27.6 20.1 67.9 20.7 70.7.3 1.3 1 2.3 1.7 2.4 1.8.1 25.9.1 28.5 0 1.7-.1 2.2-.5 1.8-1.9-.2-.9-2.3-7.8-4.5-15.2-2.2-7.4-9.5-32.1-16.2-54.9l-12.1-41.3.6-9.4c.3-5.2.8-10.2.9-11.2.2-.9.7-6.4 1.2-12.2.4-5.8.9-10.8 1-11.3.1-.4.2-2.2.3-4 .1-3.2.5-3.6 6.5-6.1 23.1-9.8 43.5-32.8 50.1-56.3l1.7-6.2 5.2 2c2.8 1.1 5.4 2.3 5.8 2.7.3.4.9 4.7 1.3 9.7.4 4.9.8 10.2 1 11.8.2 1.5.6 6.7 1 11.5.3 4.8.8 10.3 1 12.2.4 4.6 1.5 16.4 1.9 21.4.2 2.2-.2 5.8-1 8-1.8 5.8-27.4 92.4-41.9 142.1-1.3 4.4-2.2 8.2-1.9 8.4.3.3 36.3.5 41.5.2.9-.1 1.6-.7 1.6-1.4.1-.6 1.5-5.9 3.3-11.7 1.8-5.8 3.3-11.2 3.5-12 .2-.8 1-3.8 1.9-6.5.8-2.8 7.4-25 14.6-49.5 7.2-24.4 13.2-44.5 13.3-44.7.2-.1 3.6 11.1 7.7 25 4 13.9 8.2 27.9 9.2 31.2 2.7 8.9 14.6 49.6 17.6 60 1.4 4.9 2.7 9.2 2.9 9.4.2.3 32.1.5 40.4.2l2.7-.1-5-16.8c-2.7-9.2-6-20.5-7.4-25.2-1.4-4.7-5.7-19.1-9.4-32-3.8-12.9-10.7-36.6-15.5-52.5-9.3-31.3-8.9-28.6-7-46.5.2-1.9.7-7.1 1-11.5.4-4.4.8-9.6 1-11.5.2-1.9.7-7.3 1.1-12 .3-4.7.8-9.6.9-11 .2-1.4.3-3.3.4-4.3.1-1.1 1.8-2.5 4.8-3.8 26-11.1 43.9-26 58.6-48.6 5-7.8 9.1-16.1 12.3-25.1 1.2-3.5 2.4-6.5 2.7-6.8.5-.5 19.6 7.3 20.8 8.5.4.3 1 3.7 1.4 7.6.3 3.8.8 8.8 1 11 .3 2.2.7 7.4 1 11.5.3 4.1.7 9.3 1 11.5.3 2.2.7 6.9 1 10.5.2 3.6.7 9 1 12 .3 3 .7 7.7 1 10.5 1.7 18.7 1.7 18-.9 26.6-1.4 4.6-5.5 18.5-9.2 30.9-3.6 12.4-7.7 26.3-9.1 31-1.4 4.7-3.1 10.5-3.8 13-.7 2.5-2.9 9.9-4.8 16.5-5.3 17.7-20.8 70.6-26.2 89-2.6 8.8-4.8 16.4-4.8 16.9-.2.9 56 1.3 56.7.5.2-.2 7.6-25.4 16.5-55.9 9-30.5 17.1-58 18-61 1-3 4.6-15.5 8.2-27.7 3.5-12.2 6.7-21.9 7-21.5.4.4 1.6 3.8 2.7 7.7 1.1 3.8 3.8 13.1 6 20.5s6.2 21.1 9 30.5c2.8 9.3 8 27.1 11.7 39.5 3.6 12.4 6.8 23.2 7 24 1 4.2 12.8 43.6 13.1 43.9.6.7 54.6.6 55.7-.1.7-.4-1.4-8.8-6.3-25.5-15.2-51.6-19.1-64.8-19.5-66.3-.2-.8-2.4-8.3-4.8-16.5-2.5-8.3-6.6-22.2-9.2-31-4.8-16.5-12.4-42.2-17-58-2.9-9.6-2.9-10.7 0-39 .2-2.2.7-7.6 1-12 .3-4.4.8-9.6 1-11.5.5-3.8 1.1-10.1 2-22.5.7-9.3 1.5-15.7 2-16.6.3-.3 2.6-1.4 5.2-2.4 2.6-.9 7.4-3 10.6-4.6 4.1-2.1 5.9-2.5 6.2-1.7.2.7 1.6 4.7 3.1 8.8 10.3 29.1 34.4 55.3 63.7 69 4.7 2.2 9 4 9.6 4 .6 0 1.1.3 1.2.7 0 .5.2 1.9.4 3.3s.6 6.3 1 11c.3 4.7.8 9.6 1 11 .2 1.4.7 6.5 1.1 11.5.3 4.9.8 9.7.9 10.6.6 3 1.9 22.4 1.6 23.4-5.4 18.5-8.9 30.7-25.1 85.5-7.2 24.5-14.7 49.9-16.6 56.4-2.1 7.1-3.1 12.2-2.6 12.5 1.4.8 41.1.5 41.9-.3.4-.4.8-1.2.9-1.9.1-.7 5.9-20.6 12.9-44.2 7-23.7 12.9-43.7 13.1-44.5 1.7-7.1 10-34 10.4-34 .3 0 3.1 9.1 6.4 20.3 3.2 11.1 6.2 21.3 6.7 22.7.5 1.4 6.1 20.3 12.4 42 6.4 21.7 11.8 39.7 12 39.9.7.7 41.7.6 42.1-.1.4-.7-3.6-16.4-5.6-21.8-.5-1.4-5.9-19.6-12-40.5s-14.1-47.9-17.7-60c-3.6-12.1-6.6-22.5-6.7-23-.2-.6-.8-3-1.5-5.4-1.2-4.1-1.1-10.7.4-25.6.6-5.7 1.5-16.7 2-22.8.2-2.9.7-7.9 1-11.2.4-3.3.8-7.6.9-9.5.2-1.9.4-4 .5-4.6.1-1.1 9.9-4.9 10.7-4.2.2.3.6 1.4.8 2.4.2 1.1 1.4 4.6 2.7 7.9 8.3 22.1 26 41 47.4 50.6 5.6 2.6 7.5 3.9 7.6 5.4 0 1.1.2 3.6.3 5.5.2 1.9.7 7.8 1.1 13 .4 5.2.8 10.2 1 11 .2.8.6 5.6 1 10.6.6 8.8.5 9.5-3.8 24-8.3 27.6-28.7 97.3-28.7 98.1 0 1.1 29.9.8 30.9-.3.5-.5 6.9-21.3 14.2-46.1 7.3-24.9 13.4-45.1 13.5-45 .1.1 6.2 20.4 13.4 45.2 7.3 24.7 13.6 45.4 14.1 45.9.4.5 6.8.9 14.1.8 19.4 0 17.9.2 16.8-2.5-.9-2-4.4-13.8-17-56.7-2.7-9.1-7.4-25.1-10.5-35.5-5-17-5.5-19.7-5-25.5.2-3.6.7-9.7 1-13.5.3-3.9.7-8.4 1-10 .2-1.7.7-7.1 1-12l.7-9.1 7.6-3.4c23.5-10.6 41.6-31.4 49.1-56.4 2.6-8.5 3.5-14.7 3.5-25.1.1-12.6-1.1-19.6-5.3-31.4-9.1-25.8-32.3-47.9-58.1-55.2-13.4-3.9-25.3-5-37.6-3.5l-5.1.7-.2-7.2c-1.2-57.7-45.5-107.7-103.8-117.3-10.6-1.7-33.5-1.3-43.8.8-3.8.8-7.1 1.3-7.1 1.2-.1 0-.4-3.6-.8-7.8-2.5-29.9-15.3-61.9-34.4-85.8-24.1-30.3-60-52.3-96.2-58.9-3-.6-6.8-1.3-8.5-1.7-3.2-.7-39-1.6-39.6-1zm39 32.5c1.9.6 5.2 1.3 7.4 1.6 6.4 1 20.5 6.3 30.8 11.7 36.4 18.9 61.7 53.3 69.4 94.3 1.3 7.1 2.4 27.1 1.6 28.3-.3.5-3.5 2.8-7.1 5.2-14.4 9.7-28.9 25.7-37.5 41.3-9.5 17.3-15.4 38.3-15.5 55.3 0 4-.1 4.1-7.2 8.1-11.5 6.5-30 13.3-40.3 14.8-1.6.3-5.7.9-9 1.4-6.2.9-28.7.7-34-.4-1.6-.3-5.5-1-8.5-1.6-9.4-1.8-21-5.9-32.7-11.6-6.2-3-11.4-5.7-11.4-6.1-.1-.4-.2-2.7-.4-5.2-1.1-18.9-5.3-34.6-13.7-51-8.9-17.4-22.4-33-38.8-44.6l-8.5-6 .1-7c.1-8.2 1.1-18.2 2.5-24.4.6-2.5 1.3-5.5 1.5-6.7.8-4 6.6-19.7 9.2-24.8 3-6 11-19 13.7-22.4 22-27.3 49.4-44 82.1-50.1 11.1-2 40-2.1 46.3-.1zM334.5 271.4c2.8.3 5.9.7 7 1 7 1.5 11.6 3 12.3 4 .5.6 1.2 3.6 1.5 6.6 1.5 13.3 7.7 32.8 15.5 48.5 10 20.2 25.9 40.1 43 53.7 5.9 4.7 6.3 5.3 5.6 8.2-1.4 6.6-7.3 21-12 28.8-6.6 11.2-22 26.6-33.2 33.2-8.7 5.2-23.5 11.2-29.9 12.2-2.1.3-5.8 1-8.3 1.4-7.5 1.5-28.6.4-37.2-1.9-9.1-2.4-22-7.6-24.7-9.9-1.3-1.1-2.2-3.6-2.6-7.4-1.2-11.3-6.5-25.6-13.8-37.3-2.1-3.5-10.1-12.9-14.2-16.8-3.6-3.4-17.4-13.2-19.7-13.9-.9-.3-1.3-20.3-.4-24.3.2-1.1.7-4 1.1-6.5 3.5-21 17.6-44.2 35.7-58.5 21.6-17 46.7-24.2 74.3-21.1zm391.1 0c30.5 4.9 55.4 21.1 71.2 46.6 4 6.3 9.6 18.8 10.7 23.5.2.5.8 2.8 1.3 5 2 7.3 2.4 10.9 2.7 23.2.2 9.2-.1 12.3-1 12.3-2.2 0-15.9 9.6-21.6 15.2-15.4 15-25.5 35.8-27.1 55.8-.3 4.1-2.4 5.7-13.4 10-12.4 5-24.9 7-40.1 6.6-7.2-.2-13.5-.6-14-.9-.6-.4-2.5-.9-4.3-1.2-5.4-1-15-4.4-22.3-8.1-18.8-9.3-35.7-26.2-45-44.9-2.8-5.6-7.9-19.5-7.2-19.5.2 0 0-1.1-.5-2.4-.8-2.2-.4-2.9 3.8-6.2 9.2-7.3 24.9-24.1 31.7-33.9 8.6-12.2 17.1-29 21.3-41.7 3.2-9.5 6.7-24.8 7.4-31.8.3-3.4.4-3.5 7.3-5.2 3.9-.9 9.5-2 12.5-2.4 3-.3 5.6-.7 5.7-.8.5-.4 17.1.3 20.9.8zm-322.2 41.1c7.1 9.8 16.5 30.4 15.3 33.8-.4 1.4-13.7-16.4-17.6-23.8-4.3-8.1-8.8-18.3-9.6-22-.6-2.9-.6-2.9 3.5 1.5 2.2 2.5 6 7.2 8.4 10.5zm237.6-7.6c-3.3 8.5-8.8 19-14.6 27.6-5.1 7.6-11.4 15.5-11.4 14.4 0-.3 1.1-3.8 2.4-7.8 2.9-8.3 7.4-17.4 12.3-24.8 3.7-5.6 12.3-15.6 12.9-15 .2.2-.5 2.7-1.6 5.6zm-443.3 85.6c2.9.7 3.3 1.2 4.4 6.4 1.5 7.4 6.5 21.5 9.5 27 1.3 2.4 2.4 4.7 2.4 5.1 0 1.3 8.4 13.5 14.1 20.5 5.1 6.3 13.1 13.8 21.6 20.3 4.6 3.5 4.9 4.5 3.2 10.7-1 4.2-1.3 4.7-5 13-6 13.4-18.9 26.5-33.4 33.8-12.3 6.1-30 9-42 6.8-3.3-.6-7.3-1.4-8.9-1.7-4.7-.8-13.9-4.9-20.1-8.8-29.7-19.1-41.7-55.8-28.9-88.4 2.6-6.6 9.2-17.3 13.7-22.2 10.1-11.2 27.7-20.7 42.7-23.3 3.7-.6 23 0 26.7.8zm667.9 0c3.3.7 7.3 1.8 8.9 2.3 23.1 7.7 41.4 27.2 47.4 50.9 3.2 12.3 3.3 21.3.6 35.6-3 15.3-18.4 36.3-33.1 44.9-12.1 7-22.1 10-35.4 10.4-14.9.5-29.9-3.6-42-11.5-8.1-5.2-18.1-15.6-22.9-23.8-4.1-6.9-9.1-20.3-9.1-24.3 0-1.1 1.8-3.1 4.4-4.9 7.3-5.1 22.1-20.1 28.1-28.6 9.3-13.1 18.1-33 20.1-45.3.4-2.3 1-4.5 1.5-4.8 3.8-2.3 22.8-2.8 31.5-.9zm-64 23.5c-5.6 11.2-18.5 28.7-19.4 26.2-.4-1.4 4.1-11.1 8.3-17.7 3.7-5.9 13.5-16.9 14.2-16.1.3.2-1.2 3.7-3.1 7.6zm-557.3 9.7c4.2 6.9 8.1 16.3 6.7 16.3-.6 0-1-.3-1-.8 0-.4-1.7-2.5-3.6-4.7-2-2.2-4.9-5.8-6.4-8-3.4-4.9-10-17.5-10-19 .1-1.7 10.4 10.1 14.3 16.2z"/><path d="M503 138.3c-8.8 4.6-12.3 10-12.3 18.6 0 6.6 1.8 10.6 6.7 14.9 7.4 6.5 18.3 6.7 25.6.5 8.7-7.3 9.5-21 1.8-29.3-4.9-5.2-16.2-7.6-21.8-4.7zM556.4 152.6c-6 2.1-11.9 7.7-15.1 14.1-6.7 13.8-1 30.1 13.1 37.6 5.2 2.7 18 2.9 23.8.4 5.2-2.3 11.6-8.9 14-14.5 3.2-7 3-17.1-.5-23.8-2.9-5.8-8.2-10.8-14.1-13.5-5-2.3-15.3-2.4-21.2-.3zM462.5 155.8c-3.4.7-7.7 4.4-9.1 7.8-3.9 9.3 3.3 19.3 13 18.2 9.3-1.1 14.4-9.3 11-17.8-2.3-5.6-9.2-9.4-14.9-8.2zM434.4 184.5c-4.3 4.3-.4 11.9 5.5 10.8 3.7-.6 5.4-2.7 5.3-6.4-.2-6.1-6.5-8.7-10.8-4.4zM575.5 215.4c-20.5 6.4-32.6 27-27.6 46.8 7.7 30.5 44.3 40.5 66.4 18.2 9.7-9.8 13.4-26.7 8.7-39.7-2.4-6.4-6.5-13.1-9.7-15.7-5.4-4.4-9.3-6.8-13.3-8.4-5.6-2.3-19-2.9-24.5-1.2zM509 273.7c-10.9 1.7-23.8 8.8-31.1 17.2-18.3 20.8-17.4 51.5 2 71 7.2 7.3 12.6 10.7 21.1 13.4 33.4 10.4 67.2-13.8 67.9-48.6.3-14.9-4.8-27.6-15.5-38.3-6.4-6.4-17.2-12.5-24.9-13.9-4.7-.9-15.9-1.3-19.5-.8zM311.9 383c-6.8 2.1-9.3 3.4-14.6 7.7-13.6 10.9-18.1 30.7-10.6 46.5 15.8 33.6 64.4 29.2 73.8-6.7 1.7-6.8 1.3-15.9-1.1-22.7-6.7-19.2-28.3-30.5-47.5-24.8zM707.5 381.7c-10 1.8-18.3 6.1-24.4 12.4-4.2 4.5-9 14.4-9.7 19.9-1 8.8-1 10.6.4 16 4.2 16.6 17.3 28.1 34 29.9 22.7 2.4 41.9-13.9 43.5-36.9 1.2-17.1-10-33.7-26.5-39.4-4.7-1.5-13.7-2.5-17.3-1.9zM175.5 470.9c-12.9 3.2-21.8 14.6-21.8 28.1-.2 29.5 39.5 39.7 53.9 13.8 2.6-4.7 2.9-6.3 2.9-13.8 0-7.5-.3-9.1-2.9-13.7-3.1-5.6-8.5-10.5-14.3-13-4.3-1.7-13.4-2.5-17.8-1.4zM841.2 472.2c-7.3 2.7-16.1 11.7-16.4 16.8 0 .3-.5 1.4-1 2.4-1.5 2.7-1.1 12.6.7 17.6 4.8 13.7 21.3 21.8 35.5 17.6 13.4-3.9 22.1-17.9 19.9-32-2.9-18.2-21.3-28.9-38.7-22.4zM88.9 750.5c-.1.5-.2 17.6-.3 38l-.1 37-39.2.3-39.1.2.1 12.5v12.4h33.6c18.5-.1 36.1-.1 39.1 0l5.5.1v23.5l-44.3.3L0 875v24.8h42.3c23.2 0 43.1.1 44.2.1 1.9.1 2 .7 1.9 15.3 0 8.4.1 15.8.3 16.3.4 1.3 63.7 1.4 65 .2.4-.5.9-12.4.9-26.5.1-14.1.2-25.9.3-26.2 0-.3 7.4-.5 16.4-.6 19.4-.1 26.6-.9 37.3-4 18.7-5.4 29.7-15.9 35.4-33.9 2.9-8.9 3.8-32.7 1.6-41.8-.7-3.2-1.4-5.9-1.4-6-.2-2.4-2.8-9.6-4.9-13.3-3.8-7-13.8-16.6-20.8-20.2-6.8-3.4-17.2-6.8-23.7-7.7-2.3-.3-5.6-.9-7.3-1.2-5.7-1.1-98.5-.9-98.6.2zm87 52.2c10.4 5.2 10.9 20.3.7 25.5-2.9 1.5-6.7 2.2-12.8 2.6l-8.7.5-.3-6.9c-.2-3.8-.2-10.8 0-15.5l.3-8.6 8.6.3c5.6.2 9.8 1 12.2 2.1zM297.9 750.1c-.7.4-64.6 178.1-65.2 181.4-.1.5 13.3.9 35.1 1 38.2 0 35.7.4 36.6-4.9.7-3.5 4-17.2 4.4-17.6.2-.2 11.3-.5 24.8-.5 26.6 0 24.8-.4 25.9 5.6.2 1.2 1.1 4.5 1.9 7.3.7 2.8 1.6 6.2 1.9 7.6l.6 2.5H399c28.1 0 35-.2 35-1.3S421.2 893 408.8 858c-1.6-4.7-5-14.4-7.5-21.5-2.4-7.2-8.9-25.6-14.3-41-5.4-15.4-11.2-32.1-13-37l-3.1-9h-36c-19.9 0-36.5.2-37 .6zm42 90.1c2.2 8.4 4.7 17.4 5.5 20.1.8 2.6 1.1 4.9.8 5.1-1.3.7-25.2.4-25.7-.4-.3-.4.6-4.6 1.9-9.1 5.1-17.5 8.2-30.9 9.2-39.9.3-2.5.7-5.4.9-6.5.2-1.1.4-2.7.5-3.5.1-.8.8 3.1 1.6 8.7s3.2 17 5.3 25.5zM444.9 754.5c0 2.7-.1 43.9-.1 91.5v86.5H509.5v-29.3c0-16 .3-29.2.7-29.2.5 0 .8.4.8.8 0 .5 2.5 5.5 5.6 11.2 3 5.8 8.9 16.7 12.9 24.5 4.1 7.7 8.4 15.8 9.6 18l2.2 4h36.6c23.6 0 36.5-.4 36.3-1-.2-1-4.2-7-31.9-49.3-8.4-12.8-15.3-23.4-15.3-23.6 0-.3 1.5-.8 3.3-1.1 13.8-3 25.3-14.9 29.3-30.6 2-7.8 2.3-24.2.4-31.9-4.7-20.1-17.7-33.8-38.7-41.1-2.9-1-5.3-1.6-5.3-1.4 0 .3-1 .1-2.2-.4-5.2-1.9-16.6-2.4-61.5-2.5l-47.3-.1-.1 5zm85.1 44.8c14.4 7.3 10.7 30.2-5.2 32.3-2.9.4-6.3.7-7.5.7-1.3-.1-3.5-.1-5-.2l-2.8-.1v-34.9l3-.3c6.3-.6 13.2.4 17.5 2.5zM614.9 754.5V806l.1 3.6 18-.1c11.7 0 18 .3 18.1 1 .1.5.3 27.8.4 60.5.1 32.7.3 60 .4 60.5.1.7 11.6 1 32.8 1h32.8v-123h36l.3-30 .2-30H615l-.1 5zM775 841v91.5h66V868h39.8v64.5l31.9.1c17.5 0 32.3-.2 33-.4.8-.3 1.2-4.8 1.2-15.9 0-8.5.3-15.8.6-16.1.2-.3 19.6-.5 43-.5h42.5V875h-86l-.1-6.3c0-3.4-.1-8.4-.2-11-.1-2.7.1-5.3.4-5.9.4-.5 15.2-1 38-1.1l37.3-.2.1-12.3.1-12.2H947l-.1-6.3c0-3.4-.1-20.6-.2-38.2l-.2-32H881l-.1 19c0 10.4-.1 24.1-.2 30.4l-.2 11.4-18.5-.1c-10.2 0-19.1-.1-19.7-.1-1-.1-1.3-6.9-1.3-30.4v-30.2h-66V841z"/></svg>